<?xml version="1.0" standalone="no"?>
<!DOCTYPE svg PUBLIC "-//W3C//DTD SVG 20010904//EN"
 "http://www.w3.org/TR/2001/REC-SVG-20010904/DTD/svg10.dtd">
<svg version="1.0" xmlns="http://www.w3.org/2000/svg"
 width="128.000000pt" height="128.000000pt" viewBox="0 0 128.000000 128.000000"
 preserveAspectRatio="xMidYMid meet">
<metadata>
Created by potrace 1.11, written by Peter Selinger 2001-2013
</metadata>
<g transform="translate(0.000000,128.000000) scale(0.100000,-0.100000)"
fill="#000000" stroke="none">
<path d="M505 1141 c-168 -46 -296 -165 -356 -331 -34 -93 -34 -266 -1 -351 6
-15 8 -30 5 -33 -4 -3 -1 -6 6 -6 8 0 11 -6 7 -16 -3 -8 -2 -13 2 -10 4 3 14
-5 21 -16 11 -18 11 -20 -4 -15 -9 4 -14 3 -10 -3 3 -6 12 -10 20 -10 15 0 28
-27 18 -42 -4 -7 -1 -8 6 -4 7 5 21 0 32 -10 20 -18 27 -40 9 -29 -5 3 -10 1
-10 -5 0 -7 6 -10 14 -7 15 6 60 -28 69 -53 4 -11 6 -11 6 -2 1 10 9 8 34 -6
38 -24 131 -62 167 -69 14 -2 51 -5 83 -6 36 -1 56 -6 53 -13 -2 -6 2 -11 9
-11 8 0 11 7 7 16 -5 14 -3 14 10 3 13 -10 18 -10 24 -1 5 8 3 10 -7 4 -8 -5
-11 -4 -6 1 4 4 18 9 30 10 35 3 102 30 168 69 66 38 74 41 63 23 -4 -8 -3
-10 2 -5 5 5 10 13 10 18 1 5 2 14 3 20 0 5 6 7 11 4 6 -3 10 1 10 10 0 9 5
13 10 10 6 -3 10 1 10 9 0 8 11 23 25 34 13 11 21 22 18 26 -3 3 -1 6 5 6 7 0
11 6 9 13 -1 6 3 11 8 10 6 -1 12 8 12 20 1 12 7 23 12 25 5 2 7 10 4 18 -3 8
1 14 8 14 7 0 10 3 6 6 -3 3 0 25 7 48 17 54 19 167 6 236 -24 126 -114 261
-223 333 -118 78 -286 105 -422 68z m110 -68 c6 -1 15 -2 20 -3 20 -4 36 0 31
9 -4 5 4 7 15 4 21 -6 21 -7 4 -20 -11 -7 -14 -13 -8 -13 7 0 19 7 27 15 12
12 20 14 36 5 11 -6 20 -7 20 -3 0 4 7 -2 16 -13 8 -10 13 -13 9 -7 -8 17 26
4 43 -16 8 -9 11 -10 7 -3 -13 26 75 -31 129 -83 62 -59 73 -79 24 -42 -18 14
-42 28 -53 31 -28 9 -58 36 -73 66 -7 14 -10 17 -8 8 3 -10 0 -18 -7 -19 -7 0
-20 -2 -31 -4 -10 -2 -45 5 -78 16 -72 23 -100 24 -136 5 -62 -32 -111 -119
-112 -197 l0 -46 -47 12 c-27 7 -57 11 -68 9 -16 -3 -14 1 9 20 l30 23 -25 16
c-13 8 -42 19 -64 23 -22 3 -46 11 -52 16 -15 12 -6 31 9 22 7 -4 8 -2 4 5 -9
14 79 101 102 101 7 0 10 -5 6 -12 -4 -7 -3 -8 5 -4 6 4 9 12 6 17 -4 5 11 16
32 25 21 9 46 21 57 26 13 7 21 6 27 -4 7 -10 9 -10 9 2 0 9 10 16 25 16 14 1
22 -2 19 -7 -3 -5 0 -9 5 -9 6 0 11 8 11 18 0 9 4 13 8 7 4 -5 12 -11 17 -12z
m124 -185 c11 -10 13 -10 7 0 -13 22 20 13 42 -13 24 -28 29 -40 10 -29 -7 4
-8 3 -4 -5 4 -6 11 -9 16 -6 5 3 11 1 15 -5 3 -5 -4 -11 -17 -12 -64 -4 -75
-3 -103 4 -29 7 -29 7 -10 -8 11 -9 34 -22 50 -30 17 -7 27 -14 23 -15 -5 -1
-12 -3 -18 -4 -5 -1 -17 -3 -25 -4 -21 -2 -19 -57 3 -84 18 -24 62 -35 62 -17
0 6 -5 21 -11 32 -9 16 -8 19 3 13 7 -3 4 1 -7 11 -17 14 -17 16 -2 11 9 -4
17 -1 17 5 0 6 10 3 22 -8 16 -13 19 -14 10 -2 -12 14 -9 16 19 15 38 -2 37 1
43 -163 l4 -110 -27 4 c-32 4 -52 -16 -55 -56 -2 -24 2 -29 19 -27 11 0 24 -1
29 -4 5 -2 31 -5 58 -6 27 -1 52 -6 56 -10 4 -4 -3 -5 -15 -2 -13 3 -25 2 -27
-2 -3 -4 -22 -7 -43 -6 -28 0 -37 4 -35 15 2 8 0 11 -5 7 -4 -5 -8 -14 -8 -19
0 -6 -6 -13 -14 -16 -9 -3 -11 0 -6 8 6 9 4 11 -6 4 -18 -11 -57 -6 -84 12
-12 8 -24 11 -28 8 -6 -7 -30 29 -100 155 -48 85 -79 112 -139 120 -37 5 -40
8 -27 21 9 8 14 20 12 26 -7 20 37 48 77 49 21 0 36 -3 34 -7 -3 -4 4 -6 15
-5 11 0 17 6 14 14 -3 7 0 13 6 13 6 0 11 8 11 18 0 19 51 79 90 105 29 20 32
21 49 5z m128 -500 c-3 -8 -6 -5 -6 6 -1 11 2 17 5 13 3 -3 4 -12 1 -19z"/>
<path d="M500 1051 c0 -6 4 -13 10 -16 6 -3 7 1 4 9 -7 18 -14 21 -14 7z"/>
<path d="M736 1042 c-2 -4 4 -8 14 -8 10 0 16 4 14 8 -3 4 -9 8 -14 8 -5 0
-11 -4 -14 -8z"/>
<path d="M438 1023 c7 -3 16 -2 19 1 4 3 -2 6 -13 5 -11 0 -14 -3 -6 -6z"/>
<path d="M305 940 c-3 -6 1 -7 9 -4 18 7 21 14 7 14 -6 0 -13 -4 -16 -10z"/>
<path d="M713 875 c0 -8 4 -12 9 -9 5 3 6 10 3 15 -9 13 -12 11 -12 -6z"/>
<path d="M495 731 c-3 -5 -2 -12 3 -15 5 -3 9 1 9 9 0 17 -3 19 -12 6z"/>
<path d="M525 720 c3 -5 8 -10 11 -10 2 0 4 5 4 10 0 6 -5 10 -11 10 -5 0 -7
-4 -4 -10z"/>
<path d="M845 720 c-3 -6 1 -7 9 -4 18 7 21 14 7 14 -6 0 -13 -4 -16 -10z"/>
<path d="M880 165 c-7 -9 -10 -18 -6 -22 3 -3 6 -1 6 6 0 7 4 10 8 7 5 -3 9 1
9 9 0 19 -2 19 -17 0z"/>
<path d="M395 150 c-3 -6 1 -7 9 -4 18 7 21 14 7 14 -6 0 -13 -4 -16 -10z"/>
<path d="M430 140 c0 -5 5 -10 10 -10 6 0 10 5 10 10 0 6 -4 10 -10 10 -5 0
-10 -4 -10 -10z"/>
<path d="M800 130 c-8 -5 -12 -12 -9 -15 4 -3 12 1 19 10 14 17 11 19 -10 5z"/>
<path d="M530 111 c0 -5 5 -13 10 -16 6 -3 10 -2 10 4 0 5 -4 13 -10 16 -5 3
-10 2 -10 -4z"/>
<path d="M612 105 c3 -3 16 -8 28 -10 12 -2 20 -1 16 2 -4 4 -16 8 -28 10 -12
2 -19 1 -16 -2z"/>
<path d="M740 105 c0 -7 30 -13 34 -7 3 4 -4 9 -15 9 -10 1 -19 0 -19 -2z"/>
</g>
</svg>
